<svg width="19" height="11" viewBox="0 0 19 11" fill="none" xmlns="http://www.w3.org/2000/svg">
<g id="Vector">
<path d="M10.9101 9.24992H8.07861C6.61658 9.24992 5.35882 8.30577 4.81974 6.96276C4.9408 7.03836 5.07215 7.11009 5.21373 7.17749L5.27366 7.20549C5.31958 7.22663 5.36746 7.23666 5.41457 7.23666C5.55123 7.23666 5.68142 7.15226 5.73936 7.01099C5.81726 6.82102 5.73508 6.6001 5.55582 6.51757L5.50419 6.49351C4.90006 6.20596 4.53937 5.83455 4.53937 5.50004C4.53937 3.43228 6.12704 1.75004 8.07865 1.75004H10.9101C12.3691 1.75004 13.6245 2.69022 14.1656 4.02869C14.0488 3.95616 13.9224 3.88735 13.7866 3.82269L13.7263 3.79448C13.5471 3.71195 13.3385 3.79905 13.2606 3.98901C13.1828 4.17901 13.265 4.3999 13.4442 4.48239L13.4958 4.50649C14.093 4.79077 14.4495 5.16218 14.4495 5.50004C14.4495 7.56772 12.8618 9.24992 10.9101 9.24992Z" fill="#9B08F4"/>
<path fill-rule="evenodd" clip-rule="evenodd" d="M17.8596 1.22979C17.7712 1.1589 17.6567 1.13593 17.5498 1.16791C16.2983 1.54214 15.3058 2.49727 14.8052 3.70688C14.15 2.11537 12.6509 1 10.9101 1H8.07861C6.33878 1 4.84012 2.11435 4.18447 3.7047C3.68559 2.49505 2.69681 1.54073 1.45007 1.16791C1.34325 1.13596 1.22864 1.1589 1.14028 1.22979C1.05193 1.30067 1 1.41134 1 1.52884V2.53224C1 3.29958 1.15595 4.21152 1.4172 4.97169L1.63979 5.61897L1.29581 6.57569C1 7.39848 1 8.31312 1 9.4712C1 9.58866 1.05193 9.69933 1.14035 9.77025C1.20257 9.82013 1.27771 9.84623 1.35398 9.84623C1.38612 9.84623 1.41846 9.84159 1.45013 9.83213C2.69687 9.45931 3.68566 8.50498 4.18453 7.29534C4.84019 8.88562 6.33881 10 8.07868 10H10.9101C12.6509 10 14.1501 8.88467 14.8052 7.29319C15.3058 8.50277 16.2984 9.4579 17.5499 9.83213C17.5815 9.84159 17.6139 9.84623 17.646 9.84623C17.7223 9.84623 17.7975 9.8201 17.8596 9.77025C17.9481 9.69936 18 9.58869 18 9.4712V1.52884C17.9999 1.41134 17.948 1.30067 17.8596 1.22979ZM3.27338 3.48318C2.90017 2.86369 2.35913 2.3618 1.70792 2.06028V2.53224C1.70792 2.75421 1.72379 2.99388 1.75288 3.23932C2.27822 3.17087 2.81381 3.25769 3.27338 3.48318ZM1.95734 6.84269C1.74913 7.42184 1.71469 8.08309 1.70902 8.93919C2.97903 8.35055 3.83145 7.00093 3.83145 5.5C3.83145 4.92364 3.54069 4.56629 3.29678 4.36799C2.91641 4.05877 2.39489 3.92038 1.87825 3.97895C1.9346 4.23477 2.0032 4.48457 2.08242 4.71496L2.35017 5.49346C2.37929 5.57813 2.37862 5.67111 2.34837 5.75536L1.95734 6.84269ZM8.07861 9.24992H10.9101C12.8618 9.24992 14.4495 7.56772 14.4495 5.50004C14.4495 5.16218 14.093 4.79077 13.4958 4.50649L13.4442 4.48239C13.265 4.3999 13.1828 4.17901 13.2606 3.98901C13.3385 3.79905 13.5471 3.71195 13.7263 3.79448L13.7866 3.82269C13.9224 3.88735 14.0488 3.95616 14.1656 4.02869C13.6245 2.69022 12.3691 1.75004 10.9101 1.75004H8.07865C6.12704 1.75004 4.53937 3.43228 4.53937 5.50004C4.53937 5.83455 4.90006 6.20596 5.50419 6.49351L5.55582 6.51757C5.73508 6.6001 5.81726 6.82102 5.73936 7.01099C5.68142 7.15226 5.55123 7.23666 5.41457 7.23666C5.36746 7.23666 5.31958 7.22663 5.27366 7.20549L5.21373 7.17749C5.07215 7.11009 4.9408 7.03836 4.81974 6.96276C5.35882 8.30577 6.61658 9.24992 8.07861 9.24992ZM15.8097 7.66021C16.1795 8.21363 16.6888 8.66177 17.292 8.94004V7.76887C17.1051 7.79885 16.9212 7.81425 16.7426 7.81425C16.4081 7.81425 16.0923 7.76222 15.8097 7.66021ZM15.6421 6.73209C16.018 7.03776 16.6337 7.13693 17.292 7.00842L17.292 2.05989C16.0148 2.64917 15.1575 3.99957 15.1575 5.49996C15.1575 6.05614 15.3205 6.47068 15.6421 6.73209Z" fill="#9B08F4"/>
<path d="M1.70902 8.93919C1.71469 8.08309 1.74913 7.42184 1.95734 6.84269L2.34837 5.75536C2.37862 5.67111 2.37929 5.57813 2.35017 5.49346L2.08242 4.71496C2.0032 4.48457 1.9346 4.23477 1.87825 3.97895C2.39489 3.92038 2.91641 4.05877 3.29678 4.36799C3.54069 4.56629 3.83145 4.92364 3.83145 5.5C3.83145 7.00093 2.97903 8.35055 1.70902 8.93919Z" fill="#9B08F4"/>
<path d="M1.70792 2.06028C2.35913 2.3618 2.90017 2.86369 3.27338 3.48318C2.81381 3.25769 2.27822 3.17087 1.75288 3.23932C1.72379 2.99388 1.70792 2.75421 1.70792 2.53224V2.06028Z" fill="#9B08F4"/>
<path d="M17.292 7.00842C16.6337 7.13693 16.018 7.03776 15.6421 6.73209C15.3205 6.47068 15.1575 6.05614 15.1575 5.49996C15.1575 3.99957 16.0148 2.64917 17.292 2.05989L17.292 7.00842Z" fill="#9B08F4"/>
<path d="M17.292 8.94004C16.6888 8.66177 16.1795 8.21363 15.8097 7.66021C16.0923 7.76222 16.4081 7.81425 16.7426 7.81425C16.9212 7.81425 17.1051 7.79885 17.292 7.76887V8.94004Z" fill="#9B08F4"/>
<path d="M5.21373 7.17749C5.07215 7.11009 4.9408 7.03836 4.81974 6.96276C5.35882 8.30577 6.61658 9.24992 8.07861 9.24992H10.9101C12.8618 9.24992 14.4495 7.56772 14.4495 5.50004C14.4495 5.16218 14.093 4.79077 13.4958 4.50649M5.21373 7.17749C5.23338 7.18684 5.25347 7.19617 5.27366 7.20549M5.21373 7.17749L5.27366 7.20549M5.27366 7.20549C5.31958 7.22663 5.36746 7.23666 5.41457 7.23666C5.55123 7.23666 5.68142 7.15226 5.73936 7.01099C5.81726 6.82102 5.73508 6.6001 5.55582 6.51757M5.55582 6.51757C5.53855 6.50966 5.52138 6.50171 5.50419 6.49351M5.55582 6.51757L5.50419 6.49351M5.50419 6.49351C4.90006 6.20596 4.53937 5.83455 4.53937 5.50004C4.53937 3.43228 6.12704 1.75004 8.07865 1.75004H10.9101C12.3691 1.75004 13.6245 2.69022 14.1656 4.02869C14.0488 3.95616 13.9224 3.88735 13.7866 3.82269M13.7866 3.82269C13.7667 3.81315 13.7466 3.80383 13.7263 3.79448M13.7866 3.82269L13.7263 3.79448M13.7263 3.79448C13.5471 3.71195 13.3385 3.79905 13.2606 3.98901C13.1828 4.17901 13.265 4.3999 13.4442 4.48239M13.4442 4.48239C13.4614 4.49027 13.4783 4.49815 13.4958 4.50649M13.4442 4.48239L13.4958 4.50649M17.8596 1.22979C17.7712 1.1589 17.6567 1.13593 17.5498 1.16791C16.2983 1.54214 15.3058 2.49727 14.8052 3.70688C14.15 2.11537 12.6509 1 10.9101 1H8.07861C6.33878 1 4.84012 2.11435 4.18447 3.7047C3.68559 2.49505 2.69681 1.54073 1.45007 1.16791C1.34325 1.13596 1.22864 1.1589 1.14028 1.22979C1.05193 1.30067 1 1.41134 1 1.52884V2.53224C1 3.29958 1.15595 4.21152 1.4172 4.97169L1.63979 5.61897L1.29581 6.57569C1 7.39848 1 8.31312 1 9.4712C1 9.58866 1.05193 9.69933 1.14035 9.77025C1.20257 9.82013 1.27771 9.84623 1.35398 9.84623C1.38612 9.84623 1.41846 9.84159 1.45013 9.83213C2.69687 9.45931 3.68566 8.50498 4.18453 7.29534C4.84019 8.88562 6.33881 10 8.07868 10H10.9101C12.6509 10 14.1501 8.88467 14.8052 7.29319C15.3058 8.50277 16.2984 9.4579 17.5499 9.83213C17.5815 9.84159 17.6139 9.84623 17.646 9.84623C17.7223 9.84623 17.7975 9.8201 17.8596 9.77025C17.9481 9.69936 18 9.58869 18 9.4712V1.52884C17.9999 1.41134 17.948 1.30067 17.8596 1.22979ZM1.70792 2.06028C2.35913 2.3618 2.90017 2.86369 3.27338 3.48318C2.81381 3.25769 2.27822 3.17087 1.75288 3.23932C1.72379 2.99388 1.70792 2.75421 1.70792 2.53224V2.06028ZM1.70902 8.93919C1.71469 8.08309 1.74913 7.42184 1.95734 6.84269L2.34837 5.75536C2.37862 5.67111 2.37929 5.57813 2.35017 5.49346L2.08242 4.71496C2.0032 4.48457 1.9346 4.23477 1.87825 3.97895C2.39489 3.92038 2.91641 4.05877 3.29678 4.36799C3.54069 4.56629 3.83145 4.92364 3.83145 5.5C3.83145 7.00093 2.97903 8.35055 1.70902 8.93919ZM17.292 8.94004C16.6888 8.66177 16.1795 8.21363 15.8097 7.66021C16.0923 7.76222 16.4081 7.81425 16.7426 7.81425C16.9212 7.81425 17.1051 7.79885 17.292 7.76887V8.94004ZM17.292 7.00842C16.6337 7.13693 16.018 7.03776 15.6421 6.73209C15.3205 6.47068 15.1575 6.05614 15.1575 5.49996C15.1575 3.99957 16.0148 2.64917 17.292 2.05989L17.292 7.00842Z" stroke="black" stroke-width="0.2"/>
</g>
</svg>
