<!DOCTYPE svg PUBLIC "-//W3C//DTD SVG 1.1//EN" "http://www.w3.org/Graphics/SVG/1.1/DTD/svg11.dtd">
<!-- Uploaded to: SVG Repo, www.svgrepo.com, Transformed by: SVG Repo Mixer Tools -->
<svg height="256px" width="256px" version="1.1" id="Capa_1" xmlns="http://www.w3.org/2000/svg" xmlns:xlink="http://www.w3.org/1999/xlink" viewBox="-47 -47 564.00 564.00" xml:space="preserve" fill="#000000" transform="rotate(45)matrix(1, 0, 0, 1, 0, 0)">
<g id="SVGRepo_bgCarrier" stroke-width="0">
<path transform="translate(-47, -47), scale(17.625)" d="M16,31.342483580112457C18.0898409000958,31.5843672652103,20.160710743638806,30.157850861128725,21.635498049496043,28.65753585843359C23.03992442071302,27.22879969658227,22.611319606561082,24.647252894322886,24.00040462394993,23.203596679423658C25.45676410696646,21.690023073442067,28.89380736698145,22.39776620443165,29.571584109788596,20.40967498635185C30.244002288644722,18.437301796436344,27.700666058158372,16.76014999391387,26.844834473238986,14.860161966107373C26.22428476134302,13.482511217949758,26.32117064120736,11.69818700160663,25.194220822508292,10.691714133135978C24.038110630426466,9.659198290828122,21.65614749213301,10.70646783853793,20.769955284615165,9.434719784799757C19.264645742195587,7.274494875795401,21.032904086675497,3.5117618801685984,19.013606108599916,1.8220979633726628C17.48952833220443,0.54681355605591,14.837308001184644,1.9369946197344743,13.27070109192612,3.1596581793089413C11.685384004153242,4.396924159776256,12.06093928931994,7.1647685757142225,10.517002067102968,8.45330077517971C9.119839873823446,9.619338129555695,5.97734705840592,8.13199992512385,5.292533611377557,9.818041398189957C4.546522284969776,11.654754799713569,8.248676914059017,13.20692718873351,7.801767197583647,15.138331010772038C7.261611448385119,17.472714981489805,2.247599255554975,17.952090702400668,2.8753236314602084,20.26446585882115C3.483613804313733,22.505250409481267,7.865085977967049,20.219471663732417,9.600006046070625,21.762580439599727C11.061986981012412,23.062926001528336,9.829953556972152,25.78999198683206,10.916854445681247,27.416931842107623C12.119232153870295,29.21672447717577,13.849875847433196,31.093622552741,16,31.342483580112457" fill="#e5d2b8" strokewidth="0"/>
</g>
<g id="SVGRepo_tracerCarrier" stroke-linecap="round" stroke-linejoin="round"/>
<g id="SVGRepo_iconCarrier"> <g> <path style="fill:#E7453F;" d="M166.94,328.996c-10.534,23.833-29.69,51.568-45.078,72.03c-1.474,1.96-3.723,2.992-6,2.992 c-1.569,0-3.151-0.49-4.502-1.506c-3.311-2.49-3.976-7.191-1.486-10.502c13.482-17.927,36.67-50.701,46.018-75.595l-2.301-2.301 c-7.32,2.749-15.83,6.873-25.406,12.338c-1.173,0.67-2.451,0.987-3.711,0.987c-2.605,0-5.137-1.358-6.521-3.783 c-2.054-3.598-0.802-8.179,2.796-10.231c7.287-4.159,14.057-7.608,20.279-10.36c-49.268-8.823-101.696,12.59-121.584,22.002 c4.744,6.517,6.579,12.079,8.251,17.148c2.026,6.143,3.776,11.449,11.254,18.926c7.478,7.479,12.783,9.229,18.927,11.254 c6.954,2.294,14.836,4.894,24.836,14.893c9.999,10,12.599,17.882,14.893,24.836c2.025,6.144,3.775,11.449,11.254,18.927 c7.477,7.478,12.783,9.228,18.926,11.254c5.069,1.672,10.632,3.507,17.148,8.251C154.342,430.677,175.754,378.26,166.94,328.996z M103.233,342.088c-8.147,5.501-16.638,11.568-25.234,18.034c-1.351,1.016-2.933,1.506-4.502,1.506c-2.277,0-4.525-1.032-6-2.992 c-2.489-3.31-1.824-8.012,1.486-10.502c8.799-6.618,17.499-12.835,25.857-18.478c3.433-2.319,8.094-1.414,10.412,2.02 C107.571,335.108,106.666,339.77,103.233,342.088z"/> <path style="fill:#E7453F;" d="M442.305,127.785c-2.026-6.143-3.776-11.449-11.254-18.926c-7.478-7.479-12.783-9.229-18.927-11.254 c-6.954-2.294-14.836-4.894-24.836-14.893c-9.999-10-12.599-17.882-14.893-24.836c-2.025-6.144-3.775-11.449-11.254-18.927 c-7.477-7.478-12.783-9.228-18.926-11.254c-5.069-1.672-10.632-3.507-17.148-8.251c-9.409,19.88-30.822,72.298-22.007,121.563 c10.534-23.834,29.69-51.569,45.079-72.031c2.489-3.311,7.192-3.976,10.502-1.486c3.311,2.49,3.976,7.191,1.486,10.502 c-13.482,17.927-36.67,50.701-46.019,75.595l2.307,2.307c24.894-9.348,57.663-32.532,75.587-46.013 c3.311-2.49,8.013-1.824,10.502,1.486s1.824,8.012-1.486,10.502c-20.458,15.386-48.188,34.538-72.021,45.072 c49.259,8.812,101.673-12.597,121.558-22.008C445.812,138.417,443.977,132.854,442.305,127.785z"/> <path style="fill:#ffb4b4;" d="M309.182,169.874c-0.018-0.018-30.605-30.605-30.605-30.605 c-11.64-11.641-27.115-18.051-43.577-18.051s-31.938,6.41-43.577,18.051l-52.154,52.154c-24.029,24.028-24.029,63.126,0,87.154 l52.154,52.154c11.64,11.641,27.115,18.051,43.577,18.051s31.938-6.41,43.577-18.051l52.154-52.154 c24.029-24.028,24.029-63.126,0-87.154L309.182,169.874z M191.423,181.695l-30.941,30.941c-1.465,1.464-3.385,2.196-5.304,2.196 s-3.839-0.732-5.304-2.196c-2.929-2.93-2.929-7.678,0-10.607l30.941-30.941c2.93-2.928,7.678-2.928,10.607,0 C194.352,174.017,194.352,178.765,191.423,181.695z M267.972,160.481c-2.93,2.93-7.679,2.929-10.606,0.001 c-12.335-12.332-32.4-12.332-44.729,0c-1.465,1.464-3.385,2.196-5.304,2.196s-3.839-0.732-5.304-2.196 c-2.929-2.93-2.929-7.678,0-10.607c18.18-18.18,47.763-18.18,65.942,0C270.901,152.803,270.901,157.552,267.972,160.481z"/> <path style="fill:#FFFFFF;" d="M202.029,149.875c-2.929,2.93-2.929,7.678,0,10.607c1.465,1.464,3.385,2.196,5.304,2.196 s3.839-0.732,5.304-2.196c12.329-12.332,32.395-12.332,44.729,0c2.928,2.928,7.677,2.929,10.606-0.001 c2.929-2.929,2.929-7.678-0.001-10.606C249.791,131.695,220.208,131.695,202.029,149.875z"/> <path style="fill:#FFFFFF;" d="M180.816,171.088l-30.941,30.941c-2.929,2.93-2.929,7.678,0,10.607 c1.465,1.464,3.385,2.196,5.304,2.196s3.839-0.732,5.304-2.196l30.941-30.941c2.929-2.93,2.929-7.678,0-10.607 C188.493,168.16,183.745,168.16,180.816,171.088z"/> <path style="fill:#3D2A20;" d="M467.804,142.013c-7.478-7.477-9.228-12.783-11.254-18.926c-2.293-6.954-4.893-14.836-14.892-24.836 c-10-9.999-17.882-12.599-24.836-14.893c-6.144-2.025-11.449-3.775-18.927-11.254c-7.479-7.478-9.229-12.783-11.254-18.927 c-2.294-6.954-4.894-14.836-14.893-24.836c-10-9.999-17.882-12.599-24.836-14.892c-6.143-2.026-11.449-3.776-18.926-11.254 c-1.661-1.66-4.002-2.45-6.332-2.125c-2.327,0.321-4.369,1.716-5.517,3.766c-1.523,2.723-33.486,60.706-29.936,122.003 c-14.084-12.68-32.109-19.622-51.203-19.622c-20.468,0-39.711,7.971-54.185,22.443l-52.154,52.154 c-28.904,28.905-29.842,75.341-2.821,105.388C64.539,282.657,6.56,314.616,3.837,316.139c-2.05,1.147-3.444,3.189-3.766,5.517 c-0.322,2.327,0.464,4.671,2.125,6.332c7.478,7.477,9.228,12.783,11.254,18.926c2.293,6.954,4.893,14.836,14.892,24.836 c10,9.999,17.882,12.599,24.836,14.893c6.144,2.025,11.449,3.775,18.927,11.254c7.479,7.478,9.229,12.783,11.254,18.927 c2.294,6.954,4.894,14.836,14.893,24.836c10,9.999,17.882,12.599,24.836,14.892c6.143,2.026,11.449,3.776,18.926,11.254 c1.417,1.416,3.328,2.196,5.304,2.196c0.341,0,0.686-0.023,1.028-0.071c2.327-0.321,4.369-1.716,5.517-3.766 c1.524-2.723,33.486-60.706,29.936-122.003c14.084,12.68,32.109,19.622,51.203,19.622c20.468,0,39.711-7.971,54.185-22.443 l52.154-52.154c28.906-28.907,29.842-75.35,2.814-105.397c3.222,0.187,6.437,0.288,9.633,0.288 c57.611,0,109.797-28.771,112.377-30.214c2.05-1.147,3.444-3.189,3.766-5.517C470.251,146.018,469.465,143.674,467.804,142.013z M330.732,278.578l-52.154,52.154c-11.64,11.641-27.115,18.051-43.577,18.051s-31.938-6.41-43.577-18.051l-52.154-52.154 c-24.029-24.028-24.029-63.126,0-87.154l52.154-52.154c11.64-11.641,27.115-18.051,43.577-18.051s31.938,6.41,43.577,18.051 l52.154,52.154C354.761,215.452,354.761,254.549,330.732,278.578z M127.784,442.305c-6.143-2.026-11.449-3.776-18.926-11.254 c-7.479-7.478-9.229-12.783-11.254-18.927c-2.294-6.954-4.894-14.836-14.893-24.836c-10-9.999-17.882-12.599-24.836-14.893 c-6.144-2.025-11.449-3.775-18.927-11.254c-7.478-7.477-9.228-12.783-11.254-18.926c-1.672-5.069-3.507-10.632-8.251-17.148 c19.888-9.413,72.316-30.825,121.584-22.002c-6.222,2.751-12.992,6.201-20.279,10.36c-3.598,2.053-4.85,6.634-2.796,10.231 c1.384,2.425,3.915,3.783,6.521,3.783c1.26,0,2.538-0.317,3.711-0.987c9.576-5.465,18.086-9.589,25.406-12.338l2.301,2.301 c-9.349,24.894-32.536,57.668-46.018,75.595c-2.489,3.311-1.824,8.012,1.486,10.502c1.351,1.016,2.933,1.506,4.502,1.506 c2.277,0,4.526-1.032,6-2.992c15.388-20.461,34.544-48.196,45.078-72.03c8.814,49.264-12.598,101.681-22.007,121.56 C138.416,445.812,132.854,443.977,127.784,442.305z M328.998,166.941c23.832-10.534,51.563-29.686,72.021-45.072 c3.311-2.49,3.976-7.191,1.486-10.502s-7.191-3.977-10.502-1.486c-17.924,13.48-50.693,36.665-75.587,46.013l-2.307-2.307 c9.349-24.894,32.536-57.668,46.019-75.595c2.489-3.311,1.824-8.012-1.486-10.502c-3.31-2.489-8.013-1.824-10.502,1.486 c-15.389,20.462-34.545,48.197-45.079,72.031c-8.816-49.265,12.597-101.683,22.007-121.563c6.517,4.744,12.079,6.579,17.148,8.251 c6.143,2.026,11.449,3.776,18.926,11.254c7.479,7.478,9.229,12.783,11.254,18.927c2.294,6.954,4.894,14.836,14.893,24.836 c10,9.999,17.882,12.599,24.836,14.893c6.144,2.025,11.449,3.775,18.927,11.254c7.478,7.477,9.228,12.783,11.254,18.926 c1.672,5.069,3.507,10.632,8.251,17.148C430.671,154.344,378.257,175.752,328.998,166.941z"/> <path style="fill:#3D2A20;" d="M94.84,329.656c-8.358,5.643-17.059,11.859-25.857,18.478c-3.311,2.49-3.976,7.192-1.486,10.502 c1.475,1.96,3.723,2.992,6,2.992c1.569,0,3.151-0.49,4.502-1.506c8.597-6.466,17.087-12.533,25.234-18.034 c3.434-2.317,4.338-6.979,2.02-10.412C102.934,328.242,98.273,327.337,94.84,329.656z"/> </g> </g>
</svg>